<svg xmlns="http://www.w3.org/2000/svg" xmlns:xlink="http://www.w3.org/1999/xlink" width="30" height="270" viewBox="0 0 30 270"><svg viewBox="512 512 30 30" enable-background="new 512 512 30 30" width="30" height="30" id="commission" y="0"><path fill="#fff" d="M527 514c-7.1 0-13 5.9-13 13s5.9 13 13 13 13-5.9 13-13-5.9-13-13-13zm-6.9 17.6c4.1.3 2.7-4.1 6.5-4.1l1.6 1.4c.4 4.9-5.7 6.1-8.1 2.7zm9-3.7l-1.7-1.4c.5-2.4 2-4.6 3.6-5.9l3.7 3c-1.3 1.7-3.4 3.3-5.6 4.3z"/></svg>
<svg viewBox="378 378 30 30" enable-background="new 378 378 30 30" width="30" height="30" id="ebay" y="30"><path fill="#fff" d="M393 380c-7.2 0-13 5.8-13 13s5.8 13 13 13 13-5.8 13-13-5.8-13-13-13zm-3.6 7.2c0-2 1.6-3.6 3.6-3.6s3.6 1.6 3.6 3.6v2c0 .4-.3.7-.7.7s-.7-.3-.7-.7v-2c0-1.2-1-2.3-2.3-2.3-1.2 0-2.3 1-2.3 2.3v2c0 .4-.3.7-.7.7-.4 0-.7-.3-.7-.7v-2h.2zm-3.4 14.3l1.3-12.3h1.1c.1.8.8 1.5 1.6 1.5.9 0 1.6-.7 1.6-1.5h2.5c.1.8.8 1.5 1.6 1.5.9 0 1.6-.7 1.6-1.5h1.1l1.3 12.3H386z"/></svg>
<svg viewBox="378 378 30 30" enable-background="new 378 378 30 30" width="30" height="30" id="email" y="60"><path fill="#fff" d="M393 380c-7.2 0-13 5.8-13 13s5.8 13 13 13 13-5.8 13-13-5.8-13-13-13zm7.8 7.2l-7.8 6-7.7-6h15.5zm-15.5 1.7l4.6 3.5-4.6 4.6v-8.1zm0 9.9l5.6-5.6 2.2 1.7 2.2-1.7 5.6 5.6h-15.6zm15.6-1.9l-4.6-4.6 4.6-3.5v8.1z"/></svg>
<svg viewBox="172 172 30 30" enable-background="new 172 172 30 30" width="30" height="30" id="etsy" y="90"><path fill="#fff" d="M187 174c-7.2 0-13 5.8-13 13s5.8 13 13 13 13-5.8 13-13-5.8-13-13-13zm5.3 19.7c-.4.3-.8 0-1.3-.1-1.2-.1-2.7 0-4.1 0-1.4 0-2.9-.1-4.1 0-.6 0-1.3.2-1.7-.1-.1-1.1 1.2-.5 1.7-1 .1-.1.3-.7.4-1.1.1-1.1 0-2.9 0-4.7 0-1.7.1-3.5 0-4.6 0-.4-.2-1.1-.4-1.2-.4-.5-1.5-.1-1.4-.9.2-.4.8-.2 1.1-.2 2.6 0 6.4.2 8.8-.1.2 0 .6-.2.9.1.1.4-.1.7-.1 1.2 0 .7.3 2.1-.4 1.9-.4-.1-.2-.9-.4-1.2-.4-.7-2.5-.8-3.8-.8-.8 0-1.9 0-2.4.5-.1 1.3-.1 3.2 0 4.5.9.2 2.6.3 3.7.1.3 0 .7-.1.9-.2.6-.4.2-1.2.7-1.6.7 0 .5.8.4 1.5v1.5c0 .7.3 1.4-.2 1.5-.8-.3-.4-1.1-1.1-1.5-1-.6-2.9 0-4.4-.1-.2.7-.1 1.7-.1 2.6 0 .8-.2 1.9.1 2.5.4.8 2.4.7 3.6.6 1.3-.1 2.7-.4 3.1-1.2.3-.6-.1-1.1.5-1.7 1.3.3.4 1.5.3 2.5-.2.4 0 .9-.3 1.3z"/></svg>
<svg viewBox="512 512 30 30" enable-background="new 512 512 30 30" width="30" height="30" id="facebook" y="120"><path fill="#fff" d="M527 514c-7.1 0-13 5.9-13 13s5.9 13 13 13 13-5.9 13-13-5.9-13-13-13zm3.8 7.6H529c-.6 0-.8.2-.8.9v1.6h2.6l-.2 2.8h-2.4v8.4h-3.3V527h-1.7v-2.8h1.7v-2.3c0-2.1 1.1-3.2 3.7-3.2h2.4l-.2 2.9z"/></svg>
<svg viewBox="378.4 378 30 30" enable-background="new 378.4 378 30 30" width="30" height="30" id="flickr" y="150"><path fill="#fff" d="M393.4 380c-7.2 0-13 5.8-13 13s5.8 13 13 13 13-5.8 13-13-5.8-13-13-13zm3.9 17.3c-1.7 0-3.1-1-3.9-2.4-.7 1.4-2.2 2.4-3.9 2.4-2.4 0-4.3-1.9-4.3-4.3s1.9-4.3 4.3-4.3c1.7 0 3.1 1 3.9 2.4.7-1.4 2.2-2.4 3.9-2.4 2.4 0 4.3 1.9 4.3 4.3s-1.9 4.3-4.3 4.3zm3.2-4.3c0 1.7-1.4 3.2-3.2 3.2-1.7 0-3.2-1.4-3.2-3.2 0-1.7 1.4-3.2 3.2-3.2 1.7 0 3.2 1.5 3.2 3.2z"/></svg>
<svg viewBox="378 378 30 30" enable-background="new 378 378 30 30" width="30" height="30" id="instagram" y="180"><path fill="#fff" d="M390.3 393c0-1.5 1.3-2.8 2.8-2.8s2.8 1.3 2.8 2.8-1.3 2.8-2.8 2.8c-1.6 0-2.8-1.3-2.8-2.8zm7.3 0c0 2.5-2 4.5-4.5 4.5s-4.5-2-4.5-4.5c0-.4.1-.8.1-1.1h-1.3v6.2c0 .3.3.6.6.6h10.1c.3 0 .6-.3.6-.6v-6.2h-1.3c.1.3.2.7.2 1.1zm.5-5.6h-1.7c-.3 0-.6.3-.6.6v1.7c0 .3.3.6.6.6h1.7c.3 0 .6-.3.6-.6V388c0-.4-.3-.6-.6-.6zm7.9 5.6c0 7.2-5.8 13-13 13s-13-5.8-13-13 5.8-13 13-13 13 5.8 13 13zm-5.6-5.6c0-.9-.8-1.7-1.7-1.7h-11.2c-.9 0-1.7.8-1.7 1.7v11.2c0 .9.8 1.7 1.7 1.7h11.2c.9 0 1.7-.8 1.7-1.7v-11.2z"/></svg>
<svg viewBox="378 378 30 30" enable-background="new 378 378 30 30" width="30" height="30" id="twitter" y="210"><path fill="#fff" d="M393 380c-7.2 0-13 5.8-13 13s5.8 13 13 13 13-5.8 13-13-5.8-13-13-13zm6.5 10.8c.2 4.2-3 9-8.6 9-1.7 0-3.3-.5-4.6-1.4 1.6.2 3.2-.3 4.5-1.2-1.3 0-2.4-.9-2.8-2.1.5.1.9.1 1.4-.1-1.4-.3-2.5-1.6-2.4-3 .4.2.9.4 1.4.4-1.3-.9-1.7-2.7-.9-4 1.5 1.8 3.7 3 6.2 3.2-.4-1.9 1-3.7 2.9-3.7.9 0 1.7.4 2.2 1 .7-.1 1.3-.4 1.9-.7-.2.7-.7 1.3-1.3 1.7.6-.1 1.2-.2 1.7-.5-.5.4-1 .9-1.6 1.4z"/></svg>
<svg viewBox="378 378 30 30" enable-background="new 378 378 30 30" width="30" height="30" id="website" y="240"><path fill="#fff" d="M406 393c0-7.3-5.9-13-13-13-7 0-13 5.6-13 13s6 13 13 13 13-5.7 13-13zm-19.2-4.8c-.2 1.2-.4 2.5-.5 3.8h-3.7c.2-1.7.8-3.4 1.7-4.7.9.4 1.7.7 2.5.9zm-.4 5.8c.1 1.3.2 2.6.5 3.8-.9.3-1.7.6-2.5 1-.9-1.4-1.5-3-1.7-4.8h3.7zm1 5.7c.3.9.7 1.9 1.2 2.7-1.1-.5-2.1-1.2-2.9-2.1.5-.2 1.1-.4 1.7-.6zm6.6-2.7v-3h3.6c-.1 1.2-.2 2.3-.4 3.3-1-.2-2.1-.3-3.2-.3zm2.7 2.3c-.5 1.4-1.4 3.2-2.7 3.9V399c.9 0 1.8.1 2.7.3zM394 392v-3c1.1 0 2.2-.2 3.3-.4.2 1 .3 2.2.4 3.3l-3.7.1zm0-4.9v-4.4c1.3.7 2.2 2.6 2.7 4.1-.8.1-1.8.2-2.7.3zm-2-4.4v4.4c-.9 0-1.8-.1-2.7-.3.5-1.5 1.4-3.4 2.7-4.1zm0 6.3v3h-3.6c0-1.2.2-2.3.4-3.3 1 .2 2.1.3 3.2.3zm-3.2 8.3c-.2-1.1-.4-2.2-.4-3.3h3.6v3c-1.1 0-2.2.2-3.2.3zm3.2 1.7v4.2c-1.3-.7-2.2-2.5-2.6-3.9.8-.2 1.7-.3 2.6-.3zm6.6.7c.6.2 1.2.4 1.7.6-.8.8-1.8 1.5-2.9 2 .5-.7.9-1.7 1.2-2.6zm.6-1.9c.3-1.2.4-2.5.5-3.8h3.7c-.2 1.8-.8 3.4-1.7 4.8-.9-.4-1.7-.8-2.5-1zm2.5-10.5c.9 1.4 1.5 3 1.7 4.7h-3.7c0-1.3-.2-2.6-.5-3.8.8-.2 1.7-.5 2.5-.9zm-1.3-1.6c-.5.2-1.1.4-1.7.6-.3-.9-.7-1.8-1.1-2.6 1 .5 1.9 1.2 2.8 2zm-11.9-2.1c-.5.8-.9 1.7-1.2 2.7-.6-.2-1.2-.4-1.7-.6.9-.9 1.8-1.6 2.9-2.1z"/></svg>
</svg>